<svg width="1400" height="407" fill="none" xmlns="http://www.w3.org/2000/svg"><path d="M940.095 271.878a9.174 9.174 0 01-6.734 1.014 9.05 9.05 0 01-5.536-3.909c-1.928-3.173-1.152-8.411 1.66-11.255 2.717-2.743 7.343-4.827 11.086-2.914 3.587 1.839 5.485 6.402 4.412 10.626a10.529 10.529 0 01-4.888 6.438zm-8.081-11.648c-1.632 1.652-2.198 5.114-1.127 6.861a5.604 5.604 0 002.59 2.072 5.656 5.656 0 003.318.247 6.703 6.703 0 004.73-4.821c.662-2.613-.483-5.509-2.596-6.596-2.114-1.087-5.338.646-6.913 2.23l-.002.007z" fill="#EEF1F7"/><path d="M974.086 329.646a6.931 6.931 0 01-5.198.698 6.839 6.839 0 01-4.164-3.148 24072.61 24072.61 0 00-17.078-29.182l-7.001-11.955c-8.096 1.739-16.187-.633-21.392-6.369-6.904-7.614-7.427-16.698-1.48-26.283 2.48-4.033 5.907-8.471 12.339-10.729a23.274 23.274 0 0113.649-.536c8.757 2.146 15.29 9.739 15.879 18.475l-1.784.138 1.784-.138c.411 5.961-2.333 12.84-7.213 18.253l7.122 12.125c.858 1.5 1.564 2.66 2.251 3.831.437.763.893 1.509 1.387 2.351l1.824-1.17a6.914 6.914 0 014.536-1.056 6.82 6.82 0 016.025 6.303 6.931 6.931 0 01-1.258 4.486c.851-.491 1.727-.927 2.593-1.362a6.923 6.923 0 012.598-.722 6.874 6.874 0 012.669.326 6.81 6.81 0 012.333 1.323 6.794 6.794 0 011.643 2.119c.402.808.641 1.689.702 2.592a6.928 6.928 0 01-1.687 5.015 6.96 6.96 0 01-2.132 1.659 74.255 74.255 0 00-6.343 3.598 6.867 6.867 0 01.651 5.184 6.965 6.965 0 01-3.184 4.174h-.071zm-45.846-82.212c-2.823 1.63-5.122 4.072-7.468 7.834-5.058 8.203-4.674 15.612 1.138 22.007 4.667 5.166 11.813 7.011 19.157 5.019a1.782 1.782 0 012.003.81l7.671 13.105c5.516 9.413 11.028 18.828 17.081 29.187a3.28 3.28 0 001.41 1.297 3.31 3.31 0 001.899.291 3.35 3.35 0 002.764-2.453 3.28 3.28 0 00-.342-2.514l-.803-1.403a1.785 1.785 0 01-.195-1.307c.105-.445.376-.835.757-1.09a77.585 77.585 0 018.142-4.73 3.365 3.365 0 001.664-1.926 3.325 3.325 0 00-.169-2.53 3.282 3.282 0 00-1.909-1.656 3.302 3.302 0 00-2.531.193 85.35 85.35 0 00-8.381 4.838 1.805 1.805 0 01-1.385.25 1.776 1.776 0 01-1.128-.829l-.758-1.324-.659-1.152a1.79 1.79 0 01-.19-1.321c.11-.449.389-.84.779-1.091l3.71-2.377a3.342 3.342 0 001.494-3.383 3.294 3.294 0 00-1.36-2.135 3.274 3.274 0 00-1.184-.516 3.33 3.33 0 00-2.503.454l-3.39 2.175a1.749 1.749 0 01-1.379.238 1.78 1.78 0 01-1.117-.829c-.888-1.553-1.609-2.739-2.321-3.943-.712-1.203-1.377-2.345-2.256-3.839l-7.779-13.284a1.782 1.782 0 01-.228-1.125c.051-.391.228-.756.506-1.037 4.675-4.73 7.477-11.197 7.114-16.458-.499-7.209-5.943-13.475-13.208-15.269a19.777 19.777 0 00-11.609.433c-1.053.367-2.07.833-3.037 1.39zm-600.909-27.481a2.18 2.18 0 01-.249.067c-7.59.916-12.73-1.473-13.763-6.407-.404-1.953-1.474-5.637-2.806-10.257-2.166-7.429-5.098-17.616-7.112-26.993a8.13 8.13 0 011.154-6.13 8.247 8.247 0 015.17-3.546c10.798-2.299 33.054-7.2 45.368-9.913a11.114 11.114 0 019.13 2.001 1.779 1.779 0 01.288 2.476 1.817 1.817 0 01-2.484.365 7.511 7.511 0 00-6.15-1.348c-12.318 2.72-34.583 7.628-45.402 9.928a4.644 4.644 0 00-2.897 1.985 4.58 4.58 0 00-.659 3.432c1.966 9.257 4.911 19.356 7.047 26.735 1.362 4.707 2.436 8.427 2.872 10.515.898 4.296 7.718 3.813 9.786 3.565.471-.092.959.006 1.357.272a1.788 1.788 0 01-.662 3.251l.012.002z" fill="#EEF1F7"/><path d="M364.644 216.187a437.184 437.184 0 01-28.622 6.594c-3.043.592-6.507.893-8.879-1.427-1.246-1.215-1.76-2.801-2.166-4.07-2.186-6.751-7.703-22.322-10.791-30.968a10.92 10.92 0 01-.615-4.296 10.924 10.924 0 011.11-4.197 10.99 10.99 0 012.661-3.443 11.072 11.072 0 013.798-2.151c11.998-3.943 33.684-11.077 44.055-14.581a8.278 8.278 0 016.282.388 8.206 8.206 0 012.551 1.932 8.136 8.136 0 011.612 2.753c3.09 9.054 5.831 19.324 7.842 26.773 1.257 4.656 2.25 8.334 2.889 10.225a7.296 7.296 0 01-.434 5.906c-2.003 3.87-7.203 6.556-11.041 7.704a442.21 442.21 0 01-10.252 2.858zm1.119-56.868l.582 1.699c-10.39 3.494-32.075 10.649-44.105 14.595a7.485 7.485 0 00-2.549 1.453 7.408 7.408 0 00-1.784 2.319 7.347 7.347 0 00-.329 5.711c3.104 8.711 8.624 24.27 10.827 31.065.304.947.652 2.02 1.241 2.62 1.182 1.154 3.516.883 5.651.463a432.143 432.143 0 0038.533-9.367c3.3-.967 7.475-3.217 8.86-5.879a3.75 3.75 0 00.231-3.097c-.702-2.007-1.701-5.746-2.968-10.479-2.002-7.415-4.7-17.606-7.769-26.543a4.62 4.62 0 00-2.342-2.608 4.677 4.677 0 00-3.511-.228l-.568-1.724z" fill="#EEF1F7"/><path d="M325.905 214.691a1.825 1.825 0 01-1.219-.083 1.793 1.793 0 01-1.035-2.037c.093-.406.326-.767.658-1.022 3.614-2.889 5.667-5.999 7.478-8.743 1.626-2.461 3.165-4.788 5.474-6.298 4.3-2.818 9.341.981 12.776 4.078a24.815 24.815 0 012.206-8.004c2.211-4.386 6.323-7.191 10.476-7.151 2.956.035 5.599 1.441 7.72 2.572 3.973 2.123 9.08 4.706 13.36 5.984a1.813 1.813 0 011.097.864 1.776 1.776 0 01-.195 2.007 1.816 1.816 0 01-1.952.555c-4.562-1.372-9.648-3.94-14.019-6.269-1.871-.997-3.984-2.119-6.051-2.142-3.17-.037-5.904 2.571-7.204 5.169-1.567 3.113-1.905 6.784-2.226 10.34a1.79 1.79 0 01-1.144 1.506 1.818 1.818 0 01-1.869-.345c-.324-.29-.706-.639-1.094-1.028-2.361-2.239-7.26-6.901-9.897-5.178-1.692 1.107-2.909 2.946-4.447 5.278-1.861 2.816-4.165 6.321-8.233 9.564a1.754 1.754 0 01-.66.383zm13.669-22.904l-.309.082c-2.657.46-5.39-.124-7.62-1.629-2.712-2.134-3.233-5.567-1.299-8.767 2.027-3.326 6.387-5.703 10.185-3.995a7.218 7.218 0 012.254 1.717 7.131 7.131 0 011.411 2.447 8.703 8.703 0 01-.628 6.927 6.161 6.161 0 01-3.994 3.218zm-5.709-4.378a6.91 6.91 0 004.624.953 2.571 2.571 0 001.863-1.423 5.086 5.086 0 00.437-4.116 3.587 3.587 0 00-1.748-2.083c-1.884-.85-4.412.643-5.587 2.577-.586.956-1.307 2.753.411 4.092zm27.167-4.745c-.682.178-1.379.29-2.082.336-3.145.217-5.784-1.195-7.057-3.776a7.955 7.955 0 011.376-8.742c1.906-2.096 5.592-3.315 10.254-.38a6.763 6.763 0 012.707 3.193 6.708 6.708 0 01.299 4.162c-.5 2.066-2.21 4.333-5.497 5.207zm-5.039-9.786a4.384 4.384 0 00-1.147 2.264 4.365 4.365 0 00.302 2.517c.623 1.259 1.889 1.893 3.565 1.775 2.312-.159 3.941-1.223 4.356-2.848a3.12 3.12 0 00-.159-1.963 3.144 3.144 0 00-1.305-1.483c-3.473-2.187-5.186-.741-5.627-.258l.015-.004zm148.982-29.37c-9.958-5.749-11.38-8.752-11.519-9.807-.21-1.635 1.2-4.421 4.047-9.323l.363-.635c.201-.351 1.089-1.996 4.166-7.84l7.634-14.73 6.744-12.53a1.767 1.767 0 011.065-.864 1.803 1.803 0 011.37.147c.42.229.734.614.872 1.072a1.79 1.79 0 01-.137 1.369l-6.728 12.503-7.613 14.724c-2.533 4.811-3.922 7.414-4.24 7.97l-.369.644c-.821 1.435-3.291 5.667-3.567 7.021.639.96 4.077 4.092 11.611 8.247 13.868 7.652 17.112 8.49 17.861 8.479.677-.147 1.387-1.481 1.914-2.442l.363-.636c1.358-2.373 10.247-18.796 10.336-18.963l6.644-12.523 4.69-8.62a1.769 1.769 0 011.069-.859 1.81 1.81 0 011.37.157l.031.018c.409.236.709.622.838 1.075.128.453.073.938-.153 1.348l-4.685 8.581-6.646 12.516c-.389.68-9.001 16.642-10.386 19.052l-.336.587c-.853 1.624-2.104 3.811-4.411 4.252-1.493.274-4.383-.165-20.235-8.886-.686-.378-1.343-.746-1.963-1.104z" fill="#EEF1F7"/><path d="M512.907 87.076a1.808 1.808 0 01-.887-1.875 1.78 1.78 0 01.268-.676 63.793 63.793 0 015.003-6.666 6.554 6.554 0 012.465-1.952c2.227-.914 4.49.227 5.719.819a385.328 385.328 0 0130.877 17.164c1.189.734 2.663 1.644 3.717 3.08a8.83 8.83 0 011.473 3.652c.21 1.311.12 2.65-.263 3.917-1.236 4.235-2.238 5.985-2.345 6.172a1.781 1.781 0 01-1.069.79 1.803 1.803 0 01-1.324-.167 5408.5 5408.5 0 00-17.214-9.631l-26.378-14.639-.042.012zm31.892 4.07a380.361 380.361 0 00-20.898-11.214c-1.053-.526-2.115-.973-2.753-.709a3.7 3.7 0 00-1.101.99 60.54 60.54 0 00-3.645 4.677l24.66 13.646c3.39 1.88 11.891 6.647 15.532 8.69a39.596 39.596 0 001.237-3.708c.23-.74.291-1.523.179-2.292a5.25 5.25 0 00-.824-2.154 9.523 9.523 0 00-2.691-2.145 414.362 414.362 0 00-9.696-5.781z" fill="#EEF1F7"/><path d="M532.15 83.323a1.826 1.826 0 01-.82-1.012 1.805 1.805 0 01.069-1.296 16.605 16.605 0 012.986-4.472 5.7 5.7 0 012.529-1.72c1.546-.45 3.053.101 3.859.395a45.76 45.76 0 0110.566 5.538 8.38 8.38 0 011.946 1.715 6.738 6.738 0 011.155 2.737 6.672 6.672 0 01-.139 2.958 16.258 16.258 0 01-2.006 4.429 1.778 1.778 0 01-1.087.82 1.802 1.802 0 01-1.355-.185 1.816 1.816 0 01-.831-1.1 1.795 1.795 0 01.184-1.36 13.38 13.38 0 001.587-3.447 3.222 3.222 0 00-.36-2.65 5.494 5.494 0 00-1.146-.975 42.154 42.154 0 00-9.731-5.097c-.388-.142-1.203-.44-1.593-.33a2.806 2.806 0 00-.924.733 13.006 13.006 0 00-2.343 3.513 1.783 1.783 0 01-2.377.886l-.169-.08zm-25.869 42.298a1.811 1.811 0 01-.84-1.082 1.788 1.788 0 01.162-1.355c.763-1.333 1.49-2.686 2.231-4.032 4.316-7.801 8.389-15.169 13.345-22.76a1.785 1.785 0 011.838-.778 1.816 1.816 0 011.445 2.109 1.782 1.782 0 01-.26.65c-4.879 7.488-8.927 14.8-13.202 22.53-.763 1.333-1.486 2.689-2.231 4.033a1.786 1.786 0 01-1.078.85 1.813 1.813 0 01-1.369-.164l-.041-.001zm7.337 4.237a1.818 1.818 0 01-.833-1.069 1.79 1.79 0 01.14-1.341c2.561-4.807 4.895-9.217 7.214-13.643 2.319-4.425 4.673-8.83 7.216-13.646a1.773 1.773 0 011.08-.872 1.795 1.795 0 011.384.166 1.79 1.79 0 01.745 2.434 2586.007 2586.007 0 00-7.214 13.642c-2.316 4.421-4.669 8.833-7.218 13.652a1.776 1.776 0 01-1.757.933 1.808 1.808 0 01-.672-.207l-.085-.049zm7.231 4.175a1.824 1.824 0 01-.832-1.057 1.795 1.795 0 01.122-1.334 932.25 932.25 0 003.953-7.768c3.286-6.51 6.123-12.132 10.495-19.605.237-.411.628-.71 1.087-.832a1.801 1.801 0 011.363.183c.411.244.71.639.832 1.101a1.8 1.8 0 01-.181 1.362c-4.319 7.38-7.131 12.957-10.396 19.42a1160.06 1160.06 0 01-3.971 7.811 1.784 1.784 0 01-1.051.881 1.805 1.805 0 01-1.372-.123l-.049-.039zm6.324 3.651l-.026-.015a1.832 1.832 0 01-.826-1.108 1.787 1.787 0 01.196-1.361c5.876-9.832 9.729-16.576 15.289-26.716.225-.413.605-.72 1.058-.854a1.8 1.8 0 011.358.139l.032.018c.409.236.71.622.839 1.076.129.454.075.938-.15 1.35-5.562 10.197-9.433 16.972-15.357 26.836a1.776 1.776 0 01-1.074.806c-.45.119-.93.057-1.339-.171zm5.543 141.837a10.132 10.132 0 01-6.113-1.956c-1.981-1.48-3.467-4.096-3.916-6.882a10.99 10.99 0 01-2.667-.307 17.783 17.783 0 01-10.556-7.536 9.502 9.502 0 01-1.733-1.178 10.003 10.003 0 01-3.225-6.845 7.968 7.968 0 011.858-5.909 7.3 7.3 0 011.754-1.413 14.198 14.198 0 013.91-5.396 14.357 14.357 0 012.683-1.741 37.178 37.178 0 01-.743-5.407c-.283-3.937 1.099-7.419 3.803-9.559a9.504 9.504 0 018.667-1.597c2.82.76 5.239 2.565 6.758 5.043.96-1.111 1.945-2.233 2.993-3.277 3.977-3.983 10.529-7.342 15.854-3.692a8.236 8.236 0 013.405 4.926c.464 2.084.025 4.121-.558 6.011 1.187-.907 2.678-1.536 4.179-.973 1.605.578 2.827 2.048 3.359 4.06.603 2.289.165 4.659-1.156 6.19a5.96 5.96 0 01-1.439 1.183 15.94 15.94 0 01-1.104 5.12c.371.241.727.512 1.078.753 3.735-4.096 6.65-3.421 8.146-2.56 2.466 1.448 3.214 4.797 2.858 7.301-.356 2.503-1.589 4.654-2.579 6.364a103.75 103.75 0 01-.965 1.628c.48 5.816-2.363 11.075-6.469 13.24-6.898 3.646-10.406-.292-13.048-4.341a4.682 4.682 0 01-1.192.512c-2.27 2.56-4.751 5.053-7.738 6.625a13.142 13.142 0 01-6.104 1.613zm-6.485-9.421a7.297 7.297 0 002.539 4.608c2.579 1.935 6.015 1.311 8.347.082a21.546 21.546 0 005.428-4.403 11.993 11.993 0 01-.97-.784 28.482 28.482 0 01-5.639-7.014c-.738.082-1.491.199-2.255.327-.763.128-1.388.241-2.063.395-.027.372-.08.741-.16 1.106a7.412 7.412 0 01-3.385 4.802 9.195 9.195 0 01-1.842.881zm24.094-1.961c2.718 4.285 4.436 6.144 8.77 3.84a8.551 8.551 0 003.983-5.013l-.237.18c-2.967 2.196-6.738 2.273-9.173.199a6.957 6.957 0 01-1.486-1.771l-1.857 2.565zm-10.056-5.427a24.285 24.285 0 003.715 4.213c.3.277.624.525.97.743l.067-.077.392-.466a14.153 14.153 0 00-2.961-3.389 5.802 5.802 0 00-2.183-1.024zm-24.928 1.315a13.603 13.603 0 005.51 2.868 7.106 7.106 0 001.872.21 8.427 8.427 0 012.833-4.859 9.293 9.293 0 01-1.816-1.024 21.561 21.561 0 01-4.644 2.089 15.429 15.429 0 01-3.755.716zm39.384-1.914c.142.963.61 1.849 1.326 2.514 1.336 1.136 3.354.614 4.643-.354a12.413 12.413 0 002.812-3.164 12.652 12.652 0 00-1.156-3.584 14.496 14.496 0 00-2.063-3.072l-5.562 7.66zm-16.684-3.246c2.376-.071 4.708.65 6.624 2.048.829.645 1.584 1.38 2.249 2.191 0-.451.042-.917.057-1.393v-.327c.151-4.52.713-9.016 1.677-13.435l-.516-.128-10.638 9.856c.17.409.351.804.547 1.188zm14.058-9.816a70.864 70.864 0 00-1.516 12.432v.179l.392-.512a17.693 17.693 0 011.475-7.567c.392-.917.826-1.828 1.249-2.704.149-.312.299-.619.443-.926a21.907 21.907 0 00-2.043-.902zm-40.076 11.019c2.177.768 4.566.286 5.995-.159a17.843 17.843 0 003.07-1.295c-.321-.43-.618-.878-.888-1.342-1.614-2.754-2.424-5.99-3.095-8.909-1.852.41-3.534.855-4.973 1.316-.392.123-.774.251-1.141.4a12.663 12.663 0 001.032 9.989zm14.91-1.142l.201.082-.077-.19-.124.108zm2.853-2.862c.361.783.733 1.597 1.032 2.442a15.077 15.077 0 002.435-1.812 34.483 34.483 0 01-1.032-3.63 68.64 68.64 0 01-2.435 3zm32.714-4.531a18.26 18.26 0 013.096 4.403c.149.307.294.614.423.921a10.529 10.529 0 001.233-3.45c.221-1.536-.284-3.226-1.12-3.718-1.052-.604-2.538.646-3.632 1.844zm-41.866-3.861c.645 2.739 1.357 5.525 2.688 7.798.239.396.502.778.789 1.142a19.07 19.07 0 001.409-1.255 15.597 15.597 0 01-.516-1.428 16.587 16.587 0 01-.681-6.81 81.77 81.77 0 00-3.689.553zm14.6 1.721c.198 1.557.513 3.097.944 4.608l7.579-7.02a57.793 57.793 0 00-4.396-.445l-.99-.057c-.358.26-.703.539-1.032.835a22.697 22.697 0 00-2.105 2.079zm22.035 2.355l-.31.645c-.227.466-.444.921-.655 1.372l1.295-1.782-.33-.235zm-29.314-5.023a13.562 13.562 0 00.283 5.56c.439-.542.877-1.1 1.321-1.664.63-.798 1.264-1.602 1.919-2.391a40.078 40.078 0 01-.093-1.741 95.94 95.94 0 00-3.43.236zm24.985-1.188c.903.328 1.77.691 2.58 1.08a13.19 13.19 0 00.567-2.222 7.801 7.801 0 01-1.96-.102 6.098 6.098 0 01-.8-.195c-.124.477-.258.958-.387 1.439zm-37.218-1.654a9.844 9.844 0 00-1.413.994 8.125 8.125 0 00-.723.665 77.787 77.787 0 012.477-.599c-.052-.148-.103-.302-.16-.45l-.181-.61zm3.328-1.423c.093.277.191.553.289.824l.32.922a91.109 91.109 0 015.37-.783c.376-1.24.874-2.441 1.486-3.584a31.57 31.57 0 01-5.463 2.017 43.07 43.07 0 00-2.002.604zm24.336-1.362a8.872 8.872 0 016.34 2.529c.191-.691.397-1.377.609-2.048l-.108-.286c-.862-2.345-.351-4.69.325-6.851a14.738 14.738 0 00-6.418-1.07 18.73 18.73 0 00-8.931 2.458 44.961 44.961 0 01-.072 6.031c0 .323-.036.635-.052.952h.026c.753 0 1.507 0 2.255.031a11.885 11.885 0 016.026-1.746zm-11.727-2.365a14.826 14.826 0 00-2.698 4.331 81.78 81.78 0 012.502-.148l.062-1.234c.056-1.014.113-1.997.134-2.949zm22.767 1.945c.118.038.239.067.361.087a4.5 4.5 0 001.182.041 9.329 9.329 0 00-.821-2.073c-.247.624-.49 1.285-.722 1.945zm-30.831-13.721a5.744 5.744 0 00-3.611 1.234c-1.78 1.413-2.652 3.722-2.451 6.502.096 1.445.278 2.883.547 4.306.64-.21 1.28-.399 1.909-.589a25.262 25.262 0 005.267-1.992c1.987-1.111 3.694-2.785 5.376-4.664-.975-2.309-2.677-3.748-5.283-4.536a6.162 6.162 0 00-1.754-.261zm33.787 8.509a13.08 13.08 0 011.667 3.072 4.333 4.333 0 00-.098-1.73 2.37 2.37 0 00-1.032-1.583c-.2.037-.388.118-.552.236l.015.005zm-10.447-11.581c-2.884 0-6.005 2.007-8.203 4.198-1.109 1.106-2.187 2.355-3.235 3.584a23.017 23.017 0 018.523-1.864 18.51 18.51 0 017.63 1.219 7.264 7.264 0 00.274-3.456 4.66 4.66 0 00-1.93-2.749 5.292 5.292 0 00-3.059-.932zM984.639 82.595c-.45.121-.93.065-1.339-.158a1.797 1.797 0 01-.855-1.035l-.802-2.557a1.772 1.772 0 01.136-1.352 1.801 1.801 0 011.055-.865l.08-.021a1.81 1.81 0 011.337.159c.409.222.714.594.852 1.035l.807 2.556c.071.225.096.461.074.696a1.78 1.78 0 01-.644 1.214 1.82 1.82 0 01-.619.333l-.082-.005zm-12.134 3.262a1.818 1.818 0 01-1.348-.163 1.796 1.796 0 01-.852-1.05l-.777-2.585a1.763 1.763 0 01.142-1.364 1.8 1.8 0 011.073-.864l.044-.012a1.817 1.817 0 011.348.163c.411.227.716.603.852 1.05l.778 2.585a1.78 1.78 0 01-.141 1.362 1.804 1.804 0 01-1.069.865l-.05.013zm-12.172 3.299a1.816 1.816 0 01-1.348-.163 1.796 1.796 0 01-.852-1.05l-.795-2.649a1.78 1.78 0 01.586-1.904 1.809 1.809 0 011.324-.395 1.807 1.807 0 011.548 1.266l.801 2.653a1.759 1.759 0 01-.139 1.363 1.792 1.792 0 01-1.071.864l-.054.015z" fill="#EEF1F7"/><path d="M951.385 120.526a1.813 1.813 0 01-1.931-.67 1.782 1.782 0 01-.059-2.03 36.733 36.733 0 005.032-11.917l.015-.063c-3.129-1.096-5.528-2.648-7.316-4.724l-.225-.257c-2.731-3.17-5.555-6.441-6.213-11.02-.94-6.559-.89-10.733 2.052-16.785 2.808-5.756 8.876-10.33 18.042-13.57 5.222-1.85 15.011-4.759 21.731-3.4a29.18 29.18 0 0117.389 10.712 22.665 22.665 0 014.268 9.735 22.65 22.65 0 01-.63 10.6c-1.13 3.72-5.63 8.43-8.335 10.443-3.995 2.984-7.961 4.682-12.125 6.476-3.435 1.451-10.791 3.528-16.867 3.714-1.732 1.975-3.328 3.728-4.505 5.034l-.968 1.018c-2.823 3.11-5.541 4.824-9.005 6.579a1.801 1.801 0 01-.35.125zm16.6-59.531a81.47 81.47 0 00-5.967 1.864c-8.238 2.917-13.618 6.877-15.994 11.77-2.559 5.26-2.604 8.648-1.735 14.707.512 3.573 2.743 6.156 5.38 9.197l.227.263c1.601 1.86 3.838 3.153 7.041 4.071.403.116.753.367.989.711.237.343.346.758.309 1.173l-.02.164c-.04.591-.119 1.179-.237 1.759a39.678 39.678 0 01-2.279 7.014 22.447 22.447 0 002.376-2.28l.913-1.023a308.625 308.625 0 004.998-5.58 1.799 1.799 0 011.359-.619c5.68-.011 13.064-2.064 16.274-3.438 4.16-1.788 7.753-3.328 11.416-6.059 2.666-1.981 6.332-6.175 7.035-8.602a19.01 19.01 0 00.54-8.927 19.126 19.126 0 00-3.593-8.201 25.553 25.553 0 00-15.225-9.358c-3.216-.649-8.087-.139-13.807 1.394zM193.46 297.337c9.249-8.738 23.289-11.774 35.763-7.738 4.591 1.484 11.014 5.223 17.013 10.368a32.363 32.363 0 00-2.537-5.479c-1.4-2.397-4.779-5.16-10.067-8.249a1.886 1.886 0 01-.476-.28c-3.309-1.905-7.336-3.934-12.083-6.086a1.792 1.792 0 01-1.045-1.792c.034-.37.184-.721.427-1.004.244-.283.57-.484.933-.575 9.468-2.298 15.315-1.347 19.354-.267 5.686 1.508 13.242 5.686 17.379 12.793 2.558 4.403 2.955 9.555 3.114 14.294 3.843-1.247 7.075-1.504 9.792-.79.031-.034.063-.065.098-.095l12.157-9.566a1.824 1.824 0 012.254.023 1.787 1.787 0 01.475 2.188c-.183.356-3.765 7.417-6.404 11.983l15.571 1.839a1.785 1.785 0 011.275 2.787 1.81 1.81 0 01-.979.711c-.988.297-7.414 2.231-12.183 3.509-1.584.424-2.99.801-3.948.973a20.398 20.398 0 01-1.001 4.556 22.06 22.06 0 01-10.472 12.045c1.101 4.248 5.149 15.052 6.77 19.288.171.443.158.937-.037 1.372a1.811 1.811 0 01-1.002.947 1.238 1.238 0 01-.19.051c-.43.114-.888.067-1.284-.133a1.794 1.794 0 01-.865-.95c-.583-1.519-5.156-13.402-6.71-19.065-.775.297-1.562.572-2.357.811 2.159 7.123 6.18 18.561 6.223 18.682a1.782 1.782 0 01-.501 1.928 1.813 1.813 0 01-.607.356l-.134.036a1.813 1.813 0 01-1.309-.143 1.782 1.782 0 01-.858-.988c-.035-.129-4.165-11.855-6.338-19.048a23.69 23.69 0 01-5.861.314 15.788 15.788 0 01-8.471-3.19c-4.372 4.352-9.632 9.498-12.184 11.618a1.795 1.795 0 01-.69.355 1.804 1.804 0 01-1.778-.499c-1.801-1.897-3.482-4.601-4.843-6.791-.456-.726-1.03-1.51-1.638-2.344-1.328-1.807-2.699-3.676-3.337-5.636a1.813 1.813 0 01.114-1.372 1.802 1.802 0 011.059-.888c2.119-.684 4.281-1.348 6.366-1.997 3.734-1.154 7.581-2.344 11.311-3.635.184-2.541 1.383-5.083 3.584-7.592l-1.279-.786-.63-.361c-5.193-3.273-11.589-5.376-17.769-7.43-1.524-.504-3.1-1.025-4.596-1.546-7.17-2.5-13.307-4.015-23.446-4.399a1.799 1.799 0 01-1.61-1.157 1.79 1.79 0 01.447-1.929l.04-.027zm61.531-6.516c-3.597-6.166-10.457-9.84-15.202-11.124a29.984 29.984 0 00-12.187-.715 122.54 122.54 0 016.962 3.658 57.17 57.17 0 017.288-1.423 1.823 1.823 0 011.357.268 1.788 1.788 0 01.491 2.492 1.82 1.82 0 01-1.154.765 2.217 2.217 0 01-.239.064 57.506 57.506 0 00-3.371.537c.644.41 1.211.831 1.769 1.238 1.404-.302 3.137-.512 4.695-.696.729-.089 1.412-.172 2.004-.256.47-.096.958-.004 1.358.258a1.786 1.786 0 01.508 2.488 1.816 1.816 0 01-1.148.772l-.209.056a75.22 75.22 0 01-2.067.262l-1.479.179a15.322 15.322 0 012.475 3.079c.291.506.561.995.813 1.479.293-.134.616-.188.936-.156.464.04.93.055 1.395.045a11.2 11.2 0 012.604.209c.391.091.739.31.99.621a1.779 1.779 0 01.025 2.205 1.81 1.81 0 01-.975.651 1.768 1.768 0 01-.93-.021 8.135 8.135 0 00-1.77-.109l-.733-.005a37.153 37.153 0 011.938 6.838l.06.222a58.51 58.51 0 011.978 2.2 56.234 56.234 0 014.484-2.203c-.124-4.647-.326-9.846-2.666-13.878zm23.936 10.018l-4.34 3.416c.586.443 1.128.94 1.621 1.484.833-1.394 1.791-3.141 2.719-4.9zm7.106 10.574l-7.172-.856c.171.564.305 1.139.402 1.721.048.3.082.603.116.912 1.524-.334 3.964-.993 6.65-1.755l.004-.022zm-79.731-13.451a39.795 39.795 0 019.286-4.932c.452-.164.95-.144 1.386.056a1.793 1.793 0 01.874 2.39 1.812 1.812 0 01-1.023.933 39.106 39.106 0 00-5.55 2.611c1.66.414 3.281.881 4.916 1.402.107-.221.26-.418.449-.576a42.316 42.316 0 016.55-4.538 1.822 1.822 0 011.995.194 1.787 1.787 0 01-.304 2.968 36.517 36.517 0 00-4.841 3.242l1.669.566a72.578 72.578 0 002.414-1.516c2.242-1.46 4.547-2.963 7.319-3.721a1.812 1.812 0 011.369.176 1.786 1.786 0 01.656 2.448c-.24.412-.635.714-1.098.838-2.202.59-4.174 1.881-6.255 3.266 2.024.677 4.055 1.378 6.053 2.136l.561-.357a29.218 29.218 0 013.735-2.146 1.823 1.823 0 011.413-.105 1.798 1.798 0 011.051.939 1.782 1.782 0 01.041 1.407 1.804 1.804 0 01-.994 1.006c-.597.279-1.179.589-1.743.929a49.101 49.101 0 016.141 3.204l.601.369a98.713 98.713 0 013.145 2.031 1.784 1.784 0 01.21 2.779c-2.853 2.705-4.208 5.304-4.019 7.724.031.393-.069.785-.286 1.117a1.805 1.805 0 01-.911.714c-4.183 1.492-8.499 2.808-12.667 4.115-1.44.445-2.921.9-4.387 1.367a35.63 35.63 0 002.043 2.982c.624.851 1.265 1.729 1.799 2.587.949 1.548 2.101 3.376 3.275 4.885 2.448-2.204 6.537-6.162 11.785-11.411a1.817 1.817 0 012.55-.01 12.02 12.02 0 007.588 3.341c3.884.322 8.857-.83 12.955-2.999a18.441 18.441 0 008.851-10.084c1.431-4.168 1.591-10.148-2.654-13.272-3.493-2.573-9.73-1.331-18.574 3.694l-.065.018a1.813 1.813 0 01-1.238.206 1.795 1.795 0 01-1.07-.648c-6.925-8.603-17.142-15.337-23.231-17.31a32.961 32.961 0 00-14.806-1.26 33.05 33.05 0 00-13.87 5.366c2.514.233 4.784.515 6.906.879z" fill="#EEF1F7"/><path d="M262.217 309.955c.292.096 1.041.399 2.163.856.324-.781.567-1.429.631-1.632a1.816 1.816 0 012.168-1.084 1.789 1.789 0 011.291 2.034c-.079.286-.326.936-.782 2.065l2.015.822a1.799 1.799 0 011.005.941c.196.434.21.928.039 1.374-.17.446-.512.806-.95 1.003a1.823 1.823 0 01-1.384.044c-.346-.136-1.107-.446-2.05-.835-.32.797-.603 1.498-.698 1.778a1.807 1.807 0 01-1.236 1.131 1.779 1.779 0 01-1.08-.044 1.784 1.784 0 01-1.084-2.291c.121-.329.41-1.043.769-1.934a70.86 70.86 0 00-1.968-.787 1.794 1.794 0 01-1.005-.906 1.778 1.778 0 01-.081-1.347 1.815 1.815 0 012.242-1.147l-.005-.041zm611.927-156.819c.057-.106.115-.206.167-.31 4.273-8.651 2.315-18.801-5.12-26.488-5.112-5.325-10.344-7.215-16.407-5.988-3.587.734-7.681 2.498-12.169 5.254-6.432 3.939-10.046 14.586-8.863 21.118 1.388 7.547 6.58 14.759 12.396 17.154 4.833 1.981 11.509 2.217 15.178 1.234a9.4 9.4 0 00.899-.288c4.919-1.886 8.96-4.172 12.077-8.574 7.93 4.85 16.043 9.567 24.16 14.119.408.19.874.219 1.304.08a1.801 1.801 0 001.197-2.128 1.792 1.792 0 00-.746-1.073 730.323 730.323 0 01-24.073-14.11zm-15.191 8.311c-2.377.907-8.789 1.008-13.438-.9-3.991-1.639-8.928-7.265-10.239-14.478-1.062-5.79 2.582-14.579 7.195-17.405 4.129-2.533 7.834-4.146 11.004-4.794 4.828-.986 8.881.547 13.148 4.958 6.441 6.67 8.112 15.048 4.472 22.405-2.489 4.998-5.764 7.757-12.153 10.211l.011.003z" fill="#EEF1F7"/><path d="M844.175 131.35a16.394 16.394 0 00-5.619 11.635 1.788 1.788 0 002.237 1.797 1.804 1.804 0 001.333-1.672 12.694 12.694 0 014.377-9.018c.344-.313.554-.748.585-1.212a1.784 1.784 0 00-2.894-1.519l-.019-.011zm6.16-3.866l-1.269.87a1.806 1.806 0 00-.737 1.153 1.79 1.79 0 001.429 2.079 1.79 1.79 0 001.336-.282l1.274-.872a1.795 1.795 0 00.735-1.855 1.783 1.783 0 00-2.126-1.372c-.23.05-.448.145-.642.279zm7.758-18.881a1.799 1.799 0 002.033-1.526l1.447-9.929a1.79 1.79 0 00-2.211-1.992 1.799 1.799 0 00-1.333 1.484l-1.465 9.939a1.8 1.8 0 00.344 1.332 1.772 1.772 0 001.185.692zm17.834 5.138c.341-.094.648-.284.883-.549l6.022-6.856c.293-.36.436-.819.399-1.281a1.785 1.785 0 00-3.078-1.086l-6.031 6.842a1.802 1.802 0 00-.182 2.149 1.78 1.78 0 002.009.764l-.022.017zm15.079 10.605l-6.2 1.73a1.804 1.804 0 00-1.274 2.197 1.785 1.785 0 002.188 1.269l6.205-1.732a1.801 1.801 0 001.249-2.211 1.786 1.786 0 00-2.203-1.243l.035-.01zm-708.551 52.232c-.789 0-1.548-.046-2.208-.082l-1.238-.071c-5.52-.313-11.226-.635-16.742-1.536-.753-.118-1.836-.205-3.095-.303-5.211-.404-12.346-.962-14.069-5.427-.65-1.684.186-7.977 1.032-12.984l1.408-17.546c.104-1.106 2.43-26.624 2.822-30.075.031-.272.062-.553.088-.84.227-2.314.516-5.192 2.776-6.722 3.554-2.397 15.838-1.68 22.849-1.025 4.288.39 18.444 1.951 20.57 5.51.99 1.648.748 5.463-.078 12.38l-.108.906c-.082.732-.387 4.444-.898 11.034l-1.8 23.797v.154c0 .051-2.141 13.005-2.657 16.205-.97 5.785-5.144 6.625-8.652 6.625zm-33.957-8.642c.98 2.309 7.465 2.816 10.963 3.072 1.336.107 2.487.194 3.389.343 5.325.86 10.938 1.177 16.365 1.479l1.238.072c5.159.297 6.547-.394 7.053-3.533.516-3.072 2.471-15.063 2.647-16.138l1.795-23.721c.516-6.733.82-10.389.913-11.177l.108-.911c.258-2.156 1.032-8.622.563-10.102-.929-.804-6.444-2.76-17.804-3.799-13.817-1.27-19.44-.277-20.482.43-.872.589-1.063 2.534-1.212 4.096l-.093.901c-.387 3.395-2.791 29.696-2.812 29.973l-1.414 17.602v.149c-.768 4.567-1.413 10.122-1.217 11.264zm-22.638-17.045a1.797 1.797 0 01-1.708-1.219 1.787 1.787 0 01.614-1.996l3.931-2.975a1.81 1.81 0 011.389-.498 1.814 1.814 0 011.299.697 1.784 1.784 0 01-.506 2.627l-3.921 2.975a1.807 1.807 0 01-1.098.389zm4.354-49.362a1.81 1.81 0 01-1.181-.435l-2.497-2.15a1.8 1.8 0 01-.455-.551 1.767 1.767 0 01-.12-1.39 1.78 1.78 0 01.92-1.055 1.812 1.812 0 012.017.287l2.503 2.14a1.783 1.783 0 01-.158 2.825 1.814 1.814 0 01-1.029.319v.01zm3.39-5.832a1.803 1.803 0 01-1.548-.885l-1.548-2.586a1.78 1.78 0 01-.087-1.287c.133-.425.421-.786.807-1.012a1.816 1.816 0 012.376.487l1.547 2.585a1.775 1.775 0 01.012 1.793 1.81 1.81 0 01-1.559.905zm70.984-1.417a1.814 1.814 0 01-1.681-1.11 1.79 1.79 0 01.406-1.963l4.066-4.019a1.82 1.82 0 012.564.016 1.791 1.791 0 01-.016 2.544l-4.065 4.02a1.81 1.81 0 01-1.274.511zm6.201 38.584c-.444 0-.872-.162-1.203-.455a1.787 1.787 0 01-.273-2.371c.256-.36.636-.613 1.068-.712l4.643-1.07a1.82 1.82 0 011.879.701 1.775 1.775 0 01.066 1.991 1.806 1.806 0 01-1.124.799l-4.643 1.07a1.916 1.916 0 01-.413.047zm3.653 9.682c-.144 0-.288-.016-.429-.046l-3.286-.794a1.808 1.808 0 01-1.081-.818 1.785 1.785 0 01.594-2.428 1.816 1.816 0 011.338-.236l3.276.789c.429.104.804.36 1.055.719a1.78 1.78 0 01-.282 2.36 1.818 1.818 0 01-1.196.454h.011zm-55.094-55.532h-.073a1.817 1.817 0 01-1.254-.576 1.79 1.79 0 01-.479-1.288 10.766 10.766 0 00-.795-4.787 1.793 1.793 0 01-.022-1.395 1.793 1.793 0 01.993-.988 1.817 1.817 0 011.993.428c.166.174.295.38.379.603a14.29 14.29 0 011.063 6.283c-.018.463-.217.9-.554 1.22-.336.322-.785.5-1.251.5z" fill="#EEF1F7"/><path d="M167.907 146.621a2.325 2.325 0 01-.264 0 1.806 1.806 0 01-1.238-.778c-.645-.958-1.3-1.956-1.96-2.954-1.244-1.9-2.533-3.866-3.735-5.504a1.793 1.793 0 01.379-2.522 1.827 1.827 0 012.541.376c1.253 1.721 2.579 3.717 3.838 5.632l.815 1.234c2.719-2.381 5.407-5.079 8.023-7.68 1.867-1.874 3.797-3.814 5.675-5.591a1.811 1.811 0 012.927.67 1.788 1.788 0 01-.042 1.372 1.773 1.773 0 01-.409.569c-1.852 1.731-3.761 3.646-5.603 5.499-3.168 3.175-6.438 6.462-9.802 9.242a1.814 1.814 0 01-1.145.435zm975.483 129.742a17.193 17.193 0 00-4.79-4.969 17.426 17.426 0 00-6.37-2.712c-4.04-.86-9.87-.303-13.89 1.335-1.79.717-7.79 3.927-10.77 14.88a16.874 16.874 0 00-.4 7.139 16.826 16.826 0 002.6 6.67 19.967 19.967 0 0011.43 8.363c.58.158 1.18.286 1.78.383a19.692 19.692 0 0014.95-3.744 21.12 21.12 0 008.13-12.203c1.16-5.198.2-10.642-2.67-15.142zm-19.82 27.551a16.492 16.492 0 01-6.13-2.465 16.44 16.44 0 01-4.65-4.662 13.453 13.453 0 01-2.07-5.277c-.3-1.886-.19-3.814.32-5.654 2.03-7.441 5.81-11.337 8.67-12.52 3.36-1.367 8.42-1.858 11.76-1.148.25.068.5.133.76.203a13.78 13.78 0 018.16 5.896 16.693 16.693 0 012.13 12.445c-1.7 7.569-9.7 14.681-18.95 13.167v.015z" fill="#EEF1F7"/><path d="M1152.81 298.313a27.694 27.694 0 001.63-7.944c.48-.161.96-.33 1.43-.495 1.17-.433 2.36-.806 3.57-1.118 1.43-.337 5.25-1.243 4.97-5.558-.16-2.555-1.02-5.256-1.78-7.639-.23-.707-.45-1.397-.65-2.07-.44-1.485-1.47-4.968-5.64-4.772-2.51.122-5.04.839-7.5 1.526l-1.01.313a29.693 29.693 0 00-4.36-4.535c.28-1.053.47-2.099.66-3.114.21-1.226.48-2.441.83-3.638.44-1.371 1.54-5.124-2.36-7.051-2.29-1.133-5.11-1.739-7.56-2.286-.73-.157-1.45-.312-2.13-.48-1.51-.366-5.07-1.225-6.97 2.452-1.14 2.224-1.8 4.756-2.42 7.208-.19.671-.34 1.34-.52 1.982-2.02.265-4 .773-5.9 1.514-.85-.86-1.76-1.631-2.63-2.396a33.041 33.041 0 01-2.76-2.525c-1.01-1.067-3.7-3.896-7.34-1.5-2.14 1.418-4.06 3.511-5.76 5.346-.51.548-1 1.089-1.5 1.591-1.08 1.16-3.6 3.769-1.34 7.247 1.36 2.094 3.25 3.92 5.08 5.682.4.389.81.748 1.19 1.15a36.888 36.888 0 00-2.22 5.92c-.69.213-1.36.448-2.02.679-1.17.432-2.37.803-3.59 1.111-1.43.336-5.25 1.242-4.97 5.559.16 2.555 1.02 5.256 1.79 7.639.22.706.44 1.397.64 2.07.44 1.485 1.46 4.966 5.64 4.772 1.8-.132 3.58-.442 5.31-.927.36.451.74.883 1.14 1.293a41.698 41.698 0 005.96 4.973 28.03 28.03 0 01-.72 3.13c-1.36 4.5-.7 7.79 1.82 9.031 1.32.62 2.69 1.113 4.11 1.473 1.16.312 2.34.569 3.44.806.73.164 1.45.319 2.13.487 1.51.361 5.07 1.225 6.97-2.453.79-1.527 1.72-4.603 2.23-6.422a25.308 25.308 0 009.07-2.339l.27-.125c.67.575 1.32 1.184 1.94 1.825 1.01 1.066 3.69 3.894 7.33 1.498 2.15-1.423 4.08-3.51 5.77-5.345.51-.548 1-1.084 1.5-1.586 1.08-1.121 3.61-3.745 1.35-7.218a29.384 29.384 0 00-4.12-4.741zm.14 9.467c-.51.522-1.02 1.078-1.52 1.655-1.63 1.774-3.32 3.61-5.11 4.786-.65.44-1.09.725-2.7-.969a39.078 39.078 0 00-3.06-2.807l-.08-.07a1.836 1.836 0 00-.99-.424c-.37-.038-.73.036-1.06.211a21.603 21.603 0 01-10.14 2.65c-.4.006-.78.139-1.09.381-.31.241-.53.576-.63.955-.71 2.584-1.66 5.753-2.3 6.976-.4.787-.7 1.143-2.9.61-.7-.188-1.45-.335-2.21-.501-2.37-.517-4.81-1.051-6.73-1.994-.61-.3-.76-2.171.03-4.764.37-1.315.67-2.649.9-3.997l.12-.636a1.76 1.76 0 00-.1-1.063 1.826 1.826 0 00-.7-.812 38.329 38.329 0 01-6.37-5.155c-.54-.57-1.04-1.188-1.47-1.848a1.816 1.816 0 00-1.02-.725 1.828 1.828 0 00-.96.01 27.7 27.7 0 01-5.72 1.117c-.89.043-1.34-.031-1.98-2.194-.2-.697-.43-1.416-.67-2.146-.72-2.315-1.49-4.641-1.62-6.796-.05-.787-.08-1.305 2.2-1.837a39.97 39.97 0 003.91-1.217c.96-.331 1.86-.651 2.79-.906.31-.085.59-.25.81-.478.23-.228.39-.51.46-.819.65-2.526 1.58-4.97 2.79-7.283.17-.326.23-.695.18-1.058-.04-.363-.2-.702-.45-.972-.22-.232-.42-.449-.63-.655-.5-.499-1.02-1.005-1.56-1.519-1.69-1.626-3.42-3.303-4.56-5.056-.48-.743-.65-1.175.92-2.8.51-.522 1.02-1.084 1.55-1.649 1.63-1.778 3.32-3.615 5.1-4.786.65-.44 1.1-.723 2.71.969.96.983 1.97 1.913 3.04 2.786a29.07 29.07 0 013.15 2.966 1.824 1.824 0 002.11.464 21.368 21.368 0 017.14-1.845 1.81 1.81 0 001.58-1.235c.12-.43.26-.831.37-1.21.19-.677.38-1.378.55-2.096.57-2.258 1.17-4.595 2.13-6.453.4-.787.7-1.138 2.9-.605.71.189 1.45.336 2.21.496 2.37.519 4.81 1.057 6.73 2 .71.35 1.18.582.51 2.788a39.012 39.012 0 00-.91 3.996 32.062 32.062 0 01-.9 3.872c-.11.351-.11.728 0 1.08.11.352.32.662.62.887a26.215 26.215 0 015.33 5.554c.21.291.51.514.84.639.34.124.71.145 1.06.06l.22-.053c.68-.177 1.39-.375 2.11-.58 2.25-.631 4.58-1.289 6.68-1.389.89-.042 1.35.032 1.98 2.196.21.696.44 1.415.68 2.146.72 2.315 1.48 4.665 1.61 6.794.06.788.09 1.305-2.19 1.839-1.34.335-2.67.742-3.96 1.218-.87.298-1.7.607-2.52.825-.38.107-.72.335-.96.648-.23.313-.36.696-.36 1.088a24.279 24.279 0 01-1.81 9.057c-.13.33-.16.692-.09 1.04.07.348.25.666.51.915 1.54 1.474 3.28 3.165 4.43 4.898.47.773.63 1.198-.93 2.83z" fill="#EEF1F7"/><path d="M1127.34 276.913c-2.15-.144-4.29.34-6.17 1.391a10.984 10.984 0 00-4.38 4.527 10.838 10.838 0 00-1.16 6.174 10.9 10.9 0 002.45 5.79 10.468 10.468 0 005.48 3.62c1.8.472 3.7.452 5.49-.059a10.56 10.56 0 004.67-2.596c1.3-1.25 2.26-2.813 2.77-4.538.67-1.533.96-3.207.83-4.874a10.1 10.1 0 00-1.58-4.689 10.282 10.282 0 00-3.6-3.41 10.399 10.399 0 00-4.8-1.336zm5.79 13.015c-.03.066-.04.134-.06.203a6.845 6.845 0 01-1.83 3.056 6.941 6.941 0 01-3.14 1.722c-1.3.376-2.68.352-3.96-.069a6.669 6.669 0 01-3.23-2.285 7.51 7.51 0 01-1.66-4.01c-.14-1.47.16-2.95.86-4.253a7.384 7.384 0 012.96-2.929 7.522 7.522 0 014.08-.891c.54.028 1.07.111 1.58.248a6.702 6.702 0 014.52 3.945c.33.84.49 1.739.47 2.643a6.768 6.768 0 01-.59 2.62z" fill="#EEF1F7"/><g clip-path="url(#clip0)" fill="#EEF1F7"><path d="M1197.82 162.748c4.52-14.69-.26-27.472-13.41-35.949-9.97-6.431-20.82-13.127-32.38-18.365-9.59-4.347-23.38-7.949-33.29-5.114-6.95 1.995-13.07 7.016-18.23 14.901-2.64 4.071-3.13 7.713-3.66 11.572-.12.924-.25 1.865-.41 2.825-1.81.037-3.74.763-5.71 2.111a23.06 23.06 0 00-5.12 4.974c-1.34 1.782-1.79 3.547-1.37 5.246.86 3.39 4.88 5.308 8.78 7.164 1.37.609 2.7 1.3 3.98 2.071l4.62 3.02c8.18 5.354 16.63 10.887 25.33 15.906.93.539 1.81 1.118 2.66 1.677.78.503 1.56 1.016 2.35 1.475 2.99 1.726 6.2 2.739 10.13.149.62-.41 1.23-.893 1.87-1.405.64-.512 1.33-1.056 2.05-1.542a39.26 39.26 0 0010.64 13.352c6.16 4.782 12.83 6.225 19.31 4.235 12.03-3.692 18.53-17.437 21.86-28.303zm-22.94 24.881c-11.51 3.55-21.35-7.105-25.6-15.685 2.08-.506 4.6-.3 7.99 1.344a1.806 1.806 0 002.42-.811c.21-.427.24-.92.08-1.372a1.786 1.786 0 00-.91-1.035c-5.31-2.613-9.21-2.294-12.19-1.056-.2.012-.39.057-.58.133-.25.101-.47.256-.64.455a25.057 25.057 0 00-3.75 2.602c-.57.461-1.12.893-1.6 1.211-2.89 1.881-4.68.873-8.51-1.625a54.888 54.888 0 00-2.84-1.781l-.51-.296c.07-.124.18-.225.27-.334.73-.904 1.56-1.922 2.23-2.258.23-.096.43-.236.59-.412.17-.175.3-.382.38-.608.08-.226.12-.467.11-.708a1.857 1.857 0 00-.18-.694 1.903 1.903 0 00-.44-.569c-.19-.159-.4-.279-.63-.354a1.81 1.81 0 00-1.41.121c-1.4.67-2.49 2.025-3.46 3.216-.2.26-.4.504-.6.735a389.026 389.026 0 01-5.12-3.123c.37-.465.72-.964 1.04-1.455.7-1.013 1.4-2.065 2.16-2.304.24-.06.46-.168.66-.318a1.845 1.845 0 00.69-1.25 1.79 1.79 0 00-.09-.725c-.07-.233-.2-.449-.36-.633a1.925 1.925 0 00-.59-.436 1.84 1.84 0 00-1.44-.038c-1.94.621-3.05 2.262-4.03 3.706-.34.538-.72 1.05-1.14 1.534-1.49-.941-2.97-1.889-4.45-2.84 1.23-2.294 3.15-3.723 5.61-5.108.21-.116.39-.271.54-.457a1.822 1.822 0 00.36-1.323 1.94 1.94 0 00-.22-.664 1.832 1.832 0 00-.47-.53c-.18-.145-.4-.252-.63-.315-.22-.062-.46-.08-.7-.051a1.88 1.88 0 00-.67.219c-2.55 1.439-5.12 3.201-6.85 6.266l-5.81-3.791-.43-.284c1.14-1.486 2.46-2.876 4.11-3.082.47-.064.9-.313 1.19-.693.29-.379.42-.859.36-1.333a1.81 1.81 0 00-.71-1.193 1.81 1.81 0 00-1.34-.354c-2.92.365-4.96 2.378-6.67 4.658l-1.14-.749-.83-.477c-1.07-.621-2.28-1.196-3.58-1.815l-.97-.462.65-.808c1.42-1.791 2.64-3.335 4.57-3.747.45-.113.84-.395 1.09-.788.25-.393.33-.866.23-1.32-.1-.454-.37-.853-.75-1.114a1.82 1.82 0 00-1.32-.283c-3.23.669-5.06 2.991-6.67 5.018-.36.459-.72.9-1.07 1.311-1.34-.822-2.38-1.702-2.61-2.599-.06-.229-.23-.914.77-2.248 1.91-2.56 6.04-6.326 8.95-5.536a1.841 1.841 0 001.42-.199 1.786 1.786 0 00.82-1.155c.35-1.638.55-3.181.75-4.666.49-3.602.92-6.704 3.12-10.113 4.65-7.149 10.09-11.662 16.17-13.421 9.03-2.584 21.84.853 30.84 4.935 11.32 5.132 22.04 11.742 31.91 18.107 11.85 7.637 15.96 18.675 11.92 31.892-5.57 18.186-13.68 24.138-19.49 25.935z"/><path d="M1135.12 120.044a6.52 6.52 0 00-1.04-2.982 6.49 6.49 0 00-2.32-2.151c-4.79-2.763-10.13-2.684-14.29.204-5.74 3.976-8.52 7.793-8.24 11.313.15 1.909 1.24 3.763 3.06 5.229.46.374.96.712 1.48 1.01a11.145 11.145 0 006.74 1.526c4.04-.533 8.35-3.76 10.57-5.638 2.76-2.336 4.31-5.603 4.04-8.511zm-6.39 5.772c-3.21 2.744-6.47 4.543-8.7 4.841-1.66.228-3.89-.503-5.47-1.778-1.04-.836-1.65-1.797-1.72-2.715-.09-1.235.64-3.891 6.71-8.103 2.99-2.063 6.88-2.089 10.41-.048.44.227.82.562 1.1.974.27.412.44.886.48 1.378.15 1.737-.95 3.892-2.82 5.474l.01-.023zm33.05 7.262l-.03-.015c-4.41-2.546-9.41-5.432-14.71-2.853-4.46 2.155-8.34 7.006-10.2 10.838-1.33 2.728-1.55 5.343-.67 7.773.96 2.634 3.13 4.915 6.62 6.93.86.495 1.8.973 2.81 1.435 7.23 3.298 14.71.513 20.55-7.643 2.39-3.349 3.25-6.489 2.53-9.306-.72-2.817-3.06-5.254-6.9-7.159zm1.41 14.378c-2.78 3.893-8.57 9.91-16.1 6.473-4.16-1.897-6.7-4.024-7.53-6.313-.55-1.501-.38-3.144.53-5.013 1.89-3.887 5.41-7.663 8.55-9.184 3.57-1.728 7.34.436 11.32 2.73l.18.103c.4.2.77.398 1.13.604 2.19 1.268 3.51 2.688 3.9 4.241.45 1.758-.21 3.895-1.98 6.359zm-32.89-8.059a1.793 1.793 0 00-.62-.64 1.763 1.763 0 00-.84-.27c-3.06-.18-7.03 1.207-9.5 2.463-.22.099-.42.242-.59.421-.16.178-.29.388-.37.616-.08.228-.11.471-.09.713.01.241.08.477.19.694.11.216.26.407.45.563.19.156.41.272.64.342a1.805 1.805 0 001.41-.155c1.27-.631 2.6-1.142 3.97-1.529-.41.589-.78 1.21-1.08 1.858-.1.215-.16.447-.17.683-.01.236.03.472.11.694.09.222.21.425.37.599s.36.315.57.415c.22.099.45.156.69.166a1.816 1.816 0 001.72-1.04c.43-.843.95-1.641 1.54-2.38.61-.786 1.17-1.62 1.65-2.494.14-.267.2-.565.2-.865-.01-.301-.1-.594-.25-.854z"/></g><path d="M699.502 90.515c-3.103 1.792-7.114 1.358-10.387-1.198a1.795 1.795 0 01-.698-1.197 1.786 1.786 0 01.365-1.338 1.79 1.79 0 012.54-.288c2.349 1.836 5.086 2.03 6.968.518 1.553-1.252 2.572-3.921.773-7.642a1.8 1.8 0 01.275-1.977 1.8 1.8 0 011.932-.503 1.805 1.805 0 011.027.914c2.237 4.621 1.551 9.333-1.744 11.992a8.638 8.638 0 01-1.051.719z" fill="#EEF1F7"/><path d="M712.809 130.141a1.795 1.795 0 01-2.668-1.208 1.799 1.799 0 01.145-1.114c6.38-13.361-1.539-25.715-11.046-37.082a1.794 1.794 0 012.75-2.303c9.808 11.684 18.834 25.699 11.547 40.92a1.788 1.788 0 01-.728.787z" fill="#EEF1F7"/><path d="M713.512 117.023a1.788 1.788 0 01-1.494.136c-7.196-2.532-13.253-.785-20.274 1.235l-.346.099a1.783 1.783 0 01-1.398-.116 1.776 1.776 0 01-.554-.454 1.78 1.78 0 01-.39-1.348 1.801 1.801 0 01.702-1.215c.193-.145.413-.25.647-.308l.345-.098c7.335-2.124 14.211-4.079 22.488-1.171a1.793 1.793 0 01.274 3.24z" fill="#EEF1F7"/><path d="M705.941 117.457l-.182.105c-5.041 2.769-13.854 2.034-16.974.879a1.807 1.807 0 01-1.161-1.866c.5-4.829 6.315-8.304 11.53-9.122 5-.782 8.879.786 10.348 4.141.158.348.201.738.122 1.112a7.226 7.226 0 01-3.683 4.751zm-14.241-1.964c3.249.589 9.072.722 12.334-1.073a3.98 3.98 0 001.892-1.914c-1.448-2.079-5.077-1.698-6.205-1.532-3.56.572-6.784 2.463-8.021 4.519zm20.939-9.198a1.803 1.803 0 01-1.771-.018 1.797 1.797 0 01-.896-1.529c-.04-3.039 1.34-6.414 2.437-9.092.138-.334.272-.654.394-.967 1.005-2.507 2.515-4.633 3.966-6.688a47.554 47.554 0 001.773-2.59 1.798 1.798 0 011.122-.838 1.793 1.793 0 011.908 2.748c-.586.93-1.244 1.859-1.876 2.75-1.334 1.888-2.718 3.833-3.565 5.949l-.406.955c-.978 2.403-2.199 5.408-2.182 7.722.008.323-.072.642-.232.923a1.785 1.785 0 01-.672.675z" fill="#EEF1F7"/><path d="M715.783 100.087a7.383 7.383 0 01-2.409.876 1.779 1.779 0 01-1.582-.487c-3.515-3.487-3.578-6.803-3.008-8.959 1.276-4.845 6.883-8.425 11.545-9.698a1.792 1.792 0 012.245 1.973c-.704 5.19-1.838 13.435-6.791 16.295zm-2.171-2.92c2.986-1.382 4.287-6.614 4.984-10.895-2.931 1.385-5.68 3.646-6.346 6.159-.411 1.562.047 3.154 1.362 4.735zm-20.592-8.899l-.208.12c-9.54 4.13-19.883 2.222-26.351-4.886-6.977-7.66-7.552-16.776-1.637-26.387 2.469-4.039 5.883-8.487 12.327-10.741a23.322 23.322 0 0113.698-.513c8.803 2.172 15.405 9.806 16.046 18.576.665 8.638-5.304 18.883-13.875 23.831zm-17.721-37.124c-2.824 1.63-5.118 4.078-7.451 7.85-5.03 8.224-4.602 15.663 1.268 22.093 5.391 5.927 14.088 7.504 22.175 4.042 7.316-4.224 12.6-13.187 12.045-20.435-.554-7.247-6.042-13.538-13.345-15.352a19.835 19.835 0 00-11.651.413 17.799 17.799 0 00-3.041 1.389z" fill="#EEF1F7"/><path d="M683.979 89.238a1.787 1.787 0 01-2.155-.282c-4.146-4.11-4.351-12.267-3.329-18.054.699-3.91 3.868-17.067 14.521-21.953a1.8 1.8 0 011.499 3.273c-7.201 3.307-11.18 12.154-12.485 19.335-.938 5.134-.616 11.978 2.31 14.876a1.781 1.781 0 01.531 1.267 1.78 1.78 0 01-.521 1.27 1.839 1.839 0 01-.371.268z" fill="#EEF1F7"/><path d="M680.034 73.188a1.788 1.788 0 01-2.185-.312c-3.701-3.84-7.438-3.882-13.498-2.552a1.794 1.794 0 01-2.133-1.37 1.788 1.788 0 011.37-2.133c5.601-1.224 11.521-1.958 16.842 3.572a1.793 1.793 0 01-.396 2.795z" fill="#EEF1F7"/><path d="M671.948 69.249a1.793 1.793 0 01-2.672-1.792c.954-7.143 2.783-12.249 6.496-18.23a1.793 1.793 0 113.045 1.896c-3.427 5.502-5.105 10.214-5.987 16.818a1.784 1.784 0 01-.882 1.308z" fill="#EEF1F7"/><path d="M683.919 61.486a1.785 1.785 0 01-1.45.151c-3.048-.99-7.187-.846-8.818 2.82a1.79 1.79 0 01-3.31-.083 1.795 1.795 0 01.034-1.371c2.434-5.472 8.382-6.341 13.206-4.775a1.786 1.786 0 011.143 2.255 1.752 1.752 0 01-.805 1.003z" fill="#EEF1F7"/><defs><clipPath id="clip0"><path fill="#fff" transform="rotate(29.999 455.104 2124) skewX(-.218)" d="M0 0h128.846v128H0z"/></clipPath></defs></svg>